# xmcd
#
# Track frame offsets:
#	150
#	35376
#	66363
#	92546
#	124911
#	154679
#	183122
#	208955
#	232971
#	261044
#
# Disc length: 3910 seconds
#
# Revision: 1
# Processed by: cddbd v1.5.2PL0 Copyright (c) Steve Scherf et al.
# Submitted via: audiograbber 1.83.01
#
DISCID=820f440a
DTITLE=Jonas Steur - Born For the Night CD1
DYEAR=2007
DGENRE=Trance
TTITLE0=Fall To Pieces (featuring Jennifer Rene)
TTITLE1=Nightwalker
TTITLE2=Level Up
TTITLE3=Seven Moons And A Bit
TTITLE4=Pure Bliss (featuring Jennifer Rene)
TTITLE5=Rise And Shine
TTITLE6=Born For The Night
TTITLE7=Left In A Daze
TTITLE8=I Know
TTITLE9=La Nuit Noire (featuring Re:Locate)
EXTD=
EXTT0=
EXTT1=
EXTT2=
EXTT3=
EXTT4=
EXTT5=
EXTT6=
EXTT7=
EXTT8=
EXTT9=
PLAYORDER=
